<?xml version="1.0" standalone="no"?>
<!DOCTYPE svg PUBLIC "-//W3C//DTD SVG 20010904//EN"
 "http://www.w3.org/TR/2001/REC-SVG-20010904/DTD/svg10.dtd">
<svg version="1.0" xmlns="http://www.w3.org/2000/svg"
 width="700.000000pt" height="700.000000pt" viewBox="0 0 700.000000 700.000000"
 preserveAspectRatio="xMidYMid meet">
<metadata>
Created by potrace 1.14, written by Peter Selinger 2001-2017
</metadata>
<g transform="translate(0.000000,700.000000) scale(0.100000,-0.100000)"
fill="#000000" stroke="none">
<path d="M3485 6631 c-57 -23 -142 -154 -199 -303 -22 -61 -73 -225 -80 -264
-2 -10 -11 -46 -19 -79 -13 -51 -43 -194 -62 -300 -10 -55 -45 -280 -50 -325
-3 -25 -7 -61 -10 -80 -2 -19 -7 -55 -10 -80 -10 -80 -14 -114 -21 -190 -3
-41 -7 -82 -9 -90 -2 -8 -6 -62 -10 -120 -4 -58 -8 -121 -10 -140 -4 -35 -14
-190 -21 -315 -25 -446 -24 -1352 1 -1770 2 -38 6 -115 10 -170 8 -133 15
-231 20 -282 3 -24 7 -80 11 -125 3 -44 7 -88 9 -97 1 -9 6 -52 10 -96 4 -44
9 -89 11 -100 3 -11 7 -45 10 -75 3 -30 10 -80 15 -110 5 -30 11 -75 14 -100
6 -47 12 -88 20 -130 3 -14 7 -38 10 -55 3 -16 7 -41 10 -55 4 -22 12 -60 31
-160 3 -14 10 -43 16 -65 5 -22 11 -47 13 -55 17 -87 81 -288 121 -381 65
-148 147 -239 216 -239 141 0 280 291 382 800 3 14 7 36 10 50 3 13 8 40 11
60 3 20 8 47 10 60 9 44 34 203 40 255 4 28 8 57 10 65 2 8 7 44 10 80 3 36 8
76 10 90 5 34 14 113 20 180 25 266 33 361 40 500 4 58 8 134 10 170 25 431
25 1349 0 1750 -2 30 -6 102 -10 160 -3 58 -8 125 -10 150 -2 25 -6 83 -10
130 -3 47 -8 101 -10 120 -2 19 -6 60 -9 90 -13 132 -18 172 -32 285 -18 142
-23 182 -29 215 -3 14 -7 39 -9 55 -2 17 -8 50 -12 75 -4 25 -8 50 -9 55 -1
10 -15 86 -21 115 -71 341 -115 490 -189 645 -80 167 -163 231 -250 196z"/>
<path d="M1918 5329 c-47 -24 -104 -80 -147 -142 -85 -125 -184 -389 -230
-617 -10 -51 -15 -71 -25 -117 -2 -10 -7 -38 -11 -63 -4 -25 -9 -52 -10 -60
-2 -9 -6 -43 -10 -75 -4 -33 -9 -67 -10 -75 -2 -8 -6 -46 -10 -85 -4 -38 -9
-81 -11 -95 -25 -215 -25 -832 1 -1070 2 -19 7 -66 11 -105 3 -38 8 -77 9 -85
1 -8 6 -40 9 -70 4 -30 11 -77 16 -105 5 -27 11 -63 14 -80 9 -58 25 -134 51
-235 164 -646 436 -858 669 -520 145 210 253 596 311 1110 34 300 39 858 10
1125 -2 22 -6 68 -10 102 -8 84 -16 151 -31 251 -5 35 -40 224 -49 267 -3 11
-7 29 -9 40 -18 90 -98 328 -140 421 -114 247 -265 354 -398 283z"/>
<path d="M4985 5331 c-142 -65 -277 -317 -365 -685 -16 -66 -31 -132 -34 -146
-19 -99 -26 -141 -31 -180 -3 -25 -8 -56 -10 -70 -7 -48 -14 -105 -20 -165 -3
-33 -8 -73 -10 -90 -19 -159 -26 -690 -11 -910 13 -191 14 -198 20 -240 3 -22
8 -67 11 -100 3 -33 8 -67 10 -75 2 -8 7 -35 9 -60 3 -25 13 -83 22 -130 9
-47 18 -95 20 -108 27 -143 100 -371 159 -499 229 -490 529 -377 720 272 26
87 60 226 71 290 4 22 8 49 10 60 10 53 33 206 39 250 30 268 39 438 39 720 0
299 -11 483 -43 735 -55 427 -155 771 -283 971 -98 153 -214 210 -323 160z"/>
<path d="M515 4571 c-54 -15 -80 -28 -129 -65 -115 -89 -204 -225 -270 -418
-40 -115 -51 -163 -81 -335 -17 -101 -22 -318 -11 -466 20 -276 104 -550 220
-722 47 -69 134 -151 199 -186 56 -30 70 -33 142 -33 61 0 92 5 128 22 156 70
292 268 370 537 53 183 71 311 71 525 1 219 -4 276 -38 466 -13 70 -60 214
-96 297 -77 172 -186 303 -294 353 -59 27 -161 39 -211 25z"/>
<path d="M6328 4566 c-211 -74 -386 -365 -448 -746 -7 -41 -15 -84 -17 -95 -3
-11 -7 -114 -8 -230 -3 -188 1 -253 21 -375 3 -19 8 -48 10 -65 6 -35 42 -173
51 -195 3 -8 7 -20 8 -25 9 -38 73 -174 114 -241 227 -368 565 -328 773 91 47
95 100 250 114 335 3 14 9 48 14 75 12 64 22 130 25 175 5 54 6 331 1 365 -2
17 -7 61 -11 100 -4 38 -8 72 -10 75 -2 3 -6 23 -9 45 -4 22 -13 65 -21 96
-99 382 -289 618 -504 625 -36 2 -82 -3 -103 -10z"/>
</g>
</svg>
