<svg xmlns="http://www.w3.org/2000/svg" width="25.698" height="21.604" viewBox="0 0 25.698 21.604">
  <g id="Group_49" data-name="Group 49" transform="translate(-1104.047 -789.461)">
    <path id="Path_21" data-name="Path 21" d="M1108.053,802.084c-.021-3.759-.073,8.859,0,0Z" fill="#fff"/>
    <path id="Path_22" data-name="Path 22" d="M1129.464,797.719a1.532,1.532,0,0,0-1.186-1.027,1.478,1.478,0,0,0-1.2.284c-1.415.988-2.834,1.97-4.246,2.963-.193.136-.279.173-.425-.082-.029-.05-.068-.084-.1-.131a5.891,5.891,0,0,0,1.354-4.731,6.386,6.386,0,0,0-6.3-5.533,6.281,6.281,0,0,0-3.739,1.034,6.117,6.117,0,0,0-2.933,5.827,6.053,6.053,0,0,0,.958,2.835l-.834.4c-.422.2-.422.205-.425-.247a1.082,1.082,0,0,0-1.227-1.215q-1.938,0-3.875,0a1.09,1.09,0,0,0-1.244,1.236q0,2.605,0,5.212,0,2.572,0,5.144c0,1.011.5,1.422,1.5,1.376,1.128-.052,2.261-.051,3.389,0,.965.041,1.458-.369,1.457-1.345,0-.489,0-.486.5-.486q4.2,0,8.4,0a4.692,4.692,0,0,0,3.532-1.474c1.925-2,3.881-3.974,5.8-5.98A3.647,3.647,0,0,0,1129.464,797.719Zm-21.4,8.6c0,.879-.008,1.759.006,2.637.005.3-.1.421-.407.408-.483-.02-.966-.019-1.449,0-.3.011-.382-.114-.38-.395.009-1.436,0-2.873,0-4.309h0c0-1.424.007-2.848-.005-4.272,0-.328.086-.477.441-.456a10.827,10.827,0,0,0,1.3,0c.368-.022.5.1.495.481-.005.639-.009,1.179-.013,1.676C1108.057,802.8,1108.059,804.122,1108.06,806.315Zm7.169-14.468a4.622,4.622,0,0,1,6.129,2.173,4.3,4.3,0,0,1-.6,4.5,3.222,3.222,0,0,0-.886-.138c-.538,0-1.077,0-1.616,0a2.312,2.312,0,0,0,.62-.244,1.405,1.405,0,0,0,.626-1.306,1.168,1.168,0,0,0-.769-1.15v-.016a1.368,1.368,0,0,0,.863-1.36q0-1.392-1.952-1.391l-1.259.007a.9.9,0,0,0-1,.894l-.4,3.809a.816.816,0,0,0,.163.661.624.624,0,0,0,.142.094c-.43,0-.86,0-1.291,0a3.087,3.087,0,0,0-.441.05,4.407,4.407,0,0,1-.846-1.848A4.332,4.332,0,0,1,1115.229,791.847Zm2.167,4.641a.358.358,0,0,1,.412.4.462.462,0,0,1-.522.523h-.471l.1-.922Zm-.375-1.447.1-.95h.468a.356.356,0,0,1,.41.4c0,.37-.165.554-.5.554Zm10.512,5.2c-1.614,1.664-2.817,3.085-4.431,4.749-.5.516-1,1.036-1.5,1.551a2.6,2.6,0,0,1-1.936.8c-3.136,0-6.273,0-9.41.007-.331,0-.421-.106-.418-.428.014-1.513.011-3.025,0-4.538a.562.562,0,0,1,.363-.6c.888-.4,1.766-.829,2.647-1.25.027.023.051.05.079.072a.6.6,0,0,1,.086-.15l.247-.117a1.155,1.155,0,0,1,.506-.1q3.161,0,6.322,0a.777.777,0,1,1-.006,1.542c-1.724.005-3.447,0-5.17,0a1.487,1.487,0,0,0-1.044.313,1.154,1.154,0,0,0-.316,1.222,1.14,1.14,0,0,0,1.1.788c1.4.007,2.8,0,4.2,0,.421,0,.843,0,1.264,0a2.729,2.729,0,0,0,2.01-.735,17.039,17.039,0,0,1,2.158-1.635c1.265-.9,2.13-1.532,3.4-2.415a.655.655,0,0,1,.365-.178A1.553,1.553,0,0,1,1127.533,800.245Z" fill="#fff"/>
  </g>
</svg>
