<svg xmlns="http://www.w3.org/2000/svg" width="27.437" height="27.498" viewBox="0 0 27.437 27.498">
  <g id="Group_56" data-name="Group 56" transform="translate(-1186.454 -625.627)">
    <g id="Group_54" data-name="Group 54" transform="translate(1186.454 625.627)">
      <g id="Group_52" data-name="Group 52">
        <path id="Path_24" data-name="Path 24" d="M1187.859,631.608h-1.406V628.5a2.869,2.869,0,0,1,2.871-2.871h3.111v1.405h-3.111a1.463,1.463,0,0,0-1.465,1.466Z" transform="translate(-1186.454 -625.627)" fill="#898989"/>
        <path id="Path_25" data-name="Path 25" d="M1238.231,631.608h-1.406V628.5a1.463,1.463,0,0,0-1.466-1.466h-3.11v-1.405h3.11a2.869,2.869,0,0,1,2.871,2.871Z" transform="translate(-1210.794 -625.627)" fill="#898989"/>
      </g>
      <g id="Group_53" data-name="Group 53" transform="translate(0 21.517)">
        <path id="Path_26" data-name="Path 26" d="M1235.36,677.535h-3.11V676.13h3.11a1.461,1.461,0,0,0,1.037-.43,1.464,1.464,0,0,0,.429-1.036v-3.11h1.406v3.11a2.869,2.869,0,0,1-2.871,2.871Z" transform="translate(-1210.794 -671.554)" fill="#898989"/>
        <path id="Path_27" data-name="Path 27" d="M1192.436,677.535h-3.111a2.869,2.869,0,0,1-2.871-2.871v-3.11h1.406v3.11a1.468,1.468,0,0,0,.9,1.351,1.451,1.451,0,0,0,.57.115h3.111Z" transform="translate(-1186.454 -671.554)" fill="#898989"/>
      </g>
    </g>
    <g id="Group_55" data-name="Group 55" transform="translate(1190.293 629.47)">
      <path id="Path_28" data-name="Path 28" d="M1194.648,642.985h9.156v-9.156h-9.156Zm1.95-7.206h5.257v5.257H1196.6Z" transform="translate(-1194.648 -633.829)" fill="#898989"/>
      <rect id="Rectangle_12" data-name="Rectangle 12" width="2.851" height="2.851" transform="translate(3.153 3.153)" fill="#898989"/>
      <path id="Path_29" data-name="Path 29" d="M1217.278,633.829v9.156h9.157v-9.156Zm7.207,7.207h-5.257v-5.257h5.257Z" transform="translate(-1206.676 -633.829)" fill="#898989"/>
      <rect id="Rectangle_13" data-name="Rectangle 13" width="2.851" height="2.851" transform="translate(13.755 3.153)" fill="#898989"/>
      <path id="Path_30" data-name="Path 30" d="M1194.648,665.487h9.156v-9.156h-9.156Zm1.95-7.207h5.257v5.257H1196.6Z" transform="translate(-1194.648 -645.789)" fill="#898989"/>
      <rect id="Rectangle_14" data-name="Rectangle 14" width="2.851" height="2.851" transform="translate(3.153 13.695)" fill="#898989"/>
      <path id="Path_31" data-name="Path 31" d="M1218.963,667.235h-1.685v4.048h4.048V669.6h-2.363Z" transform="translate(-1206.676 -651.584)" fill="#898989"/>
      <path id="Path_32" data-name="Path 32" d="M1228.175,658.074h2.363v2.363h1.685v-4.048h-4.048Z" transform="translate(-1212.467 -645.82)" fill="#898989"/>
      <path id="Path_33" data-name="Path 33" d="M1218.958,656.473v1.637h-1.637v1.763h1.637v1.637h1.762v-1.637h1.637V658.11h-1.637v-1.637Z" transform="translate(-1206.698 -645.864)" fill="#898989"/>
      <path id="Path_34" data-name="Path 34" d="M1229.286,665.018h-1.762v1.637h-1.637v1.763h1.637v1.637h1.762v-1.637h1.637v-1.763h-1.637Z" transform="translate(-1211.251 -650.406)" fill="#898989"/>
    </g>
  </g>
</svg>
